<svg width="50" height="20" viewBox="0 0 50 20" fill="none" xmlns="http://www.w3.org/2000/svg">
<path d="M9.54891 2.5785C8.97802 3.25404 8.0646 3.78687 7.15119 3.71075C7.03701 2.79734 7.4842 1.82683 8.00752 1.2274C8.5784 0.532826 9.57745 0.038059 10.3862 0C10.4814 0.951475 10.1103 1.88392 9.54891 2.5785ZM10.3767 3.89153C9.05414 3.81541 7.92188 4.6432 7.29391 4.6432C6.65642 4.6432 5.69543 3.92959 4.64881 3.94862C3.2882 3.96765 2.02274 4.73834 1.32816 5.96575C-0.0990494 8.42055 0.957088 12.0552 2.33673 14.0533C3.01227 15.0428 3.82103 16.1275 4.88668 16.0894C5.89524 16.0514 6.29486 15.4329 7.51275 15.4329C8.74015 15.4329 9.0922 16.0894 10.1578 16.0704C11.2616 16.0514 11.9561 15.0809 12.6317 14.0913C13.4024 12.9686 13.7164 11.8744 13.7354 11.8173C13.7164 11.7983 11.6041 10.9895 11.5851 8.55376C11.566 6.5176 13.2501 5.5471 13.3263 5.49001C12.3748 4.08183 10.8905 3.92959 10.3767 3.89153ZM18.017 1.13225V15.9657H20.3196V10.8944H23.507C26.4186 10.8944 28.4642 8.89629 28.4642 6.00381C28.4642 3.11132 26.4566 1.13225 23.5832 1.13225H18.017ZM20.3196 3.07326H22.9742C24.9723 3.07326 26.1141 4.13892 26.1141 6.01332C26.1141 7.88773 24.9723 8.96289 22.9647 8.96289H20.3196V3.07326ZM32.6697 16.0799C34.116 16.0799 35.4576 15.3473 36.0665 14.1865H36.1141V15.9657H38.2454V8.5823C38.2454 6.44148 36.5327 5.06185 33.8971 5.06185C31.4519 5.06185 29.6441 6.46051 29.5775 8.38249H31.6517C31.8229 7.46908 32.6697 6.86965 33.8305 6.86965C35.2387 6.86965 36.0285 7.52617 36.0285 8.73454V9.55281L33.155 9.72407C30.4814 9.88582 29.0351 10.98 29.0351 12.883C29.0351 14.8049 30.5289 16.0799 32.6697 16.0799ZM33.2882 14.3197C32.0608 14.3197 31.2806 13.7298 31.2806 12.8259C31.2806 11.8934 32.0323 11.3511 33.469 11.2655L36.0285 11.1037V11.941C36.0285 13.3302 34.8486 14.3197 33.2882 14.3197ZM41.0903 20C43.3358 20 44.3919 19.1437 45.3148 16.5461L49.3586 5.20457H47.018L44.3063 13.9677H44.2587L41.547 5.20457H39.1398L43.0408 16.0038L42.8315 16.6603C42.4795 17.7736 41.9086 18.2017 40.8905 18.2017C40.7097 18.2017 40.3577 18.1827 40.2149 18.1637V19.9429C40.3481 19.981 40.919 20 41.0903 20Z" fill="white"/>
</svg>
