<svg width="35" height="12" viewBox="0 0 35 12" fill="none" xmlns="http://www.w3.org/2000/svg">
<path d="M7.07942 11.047C6.30326 11.6822 5.3069 12 4.09036 12C3.19861 12 2.42793 11.8815 1.77769 11.6436C1.12744 11.4062 0.534985 11.0055 0 10.442L1.41576 8.95028C2.04534 9.61326 2.94193 9.94475 4.10618 9.94475C4.7561 9.94475 5.2517 9.81756 5.59264 9.56353C5.93391 9.30915 6.10405 8.94487 6.10405 8.46961C6.10405 8.06101 5.98879 7.73493 5.75795 7.49171C5.55874 7.29282 5.22296 7.16022 4.75126 7.09392L3.41396 6.87845C2.4699 6.73469 1.74637 6.4086 1.2427 5.90055C0.708039 5.34819 0.440386 4.57459 0.440386 3.58011C0.440386 2.50817 0.791661 1.64377 1.49453 0.986188C2.19741 0.328609 3.1463 0 4.34219 0C5.85222 0 7.05876 0.458684 7.96052 1.37569L6.57608 2.81768C6.05175 2.27612 5.28592 2.00552 4.27923 2.00552C3.72294 2.00552 3.29869 2.14641 3.00489 2.42818C2.71141 2.70994 2.5645 3.0663 2.5645 3.49724C2.5645 3.85071 2.66943 4.13248 2.87897 4.34254C3.12015 4.57458 3.4611 4.72376 3.90148 4.79005L5.23878 5.00552C6.19349 5.14929 6.90637 5.45844 7.3784 5.9337C7.95535 6.49724 8.24367 7.32597 8.24367 8.41989C8.24367 9.53579 7.85591 10.4117 7.07942 11.047Z" fill="#666C7B"/>
<path fill-rule="evenodd" clip-rule="evenodd" d="M15.8109 10.9392C15.1604 11.6465 14.3112 12 13.2623 12C12.2239 12 11.3796 11.6465 10.7294 10.9392C10.3804 10.5555 10.1285 10.0852 9.99779 9.57182C9.8667 9.05801 9.80116 8.3925 9.80116 7.57458C9.80116 6.75666 9.8667 6.09368 9.99779 5.58563C10.1289 5.07723 10.3726 4.62431 10.7294 4.22652C11.3796 3.51922 12.2239 3.16575 13.2623 3.16575C14.3319 3.16575 15.1817 3.51922 15.8109 4.22652C16.1677 4.62431 16.4115 5.07759 16.5425 5.58563C16.6733 6.09368 16.7392 6.75666 16.7392 7.57458C16.7392 8.40331 16.6733 9.07458 16.5425 9.5884C16.4137 10.0978 16.1616 10.5633 15.8109 10.9392ZM12.3182 9.67956C12.5594 9.93358 12.8742 10.0608 13.2623 10.0608C13.661 10.0608 13.981 9.93358 14.2218 9.67956C14.5366 9.35923 14.6938 8.65734 14.6938 7.57458C14.6938 6.50264 14.5366 5.80687 14.2218 5.48619C13.9803 5.23216 13.6607 5.10497 13.2623 5.10497C12.8742 5.10497 12.5594 5.23216 12.3182 5.48619C12.0037 5.80651 11.8465 6.50264 11.8465 7.57458C11.8465 8.65734 12.0037 9.35887 12.3182 9.67956Z" fill="#666C7B"/>
<path d="M22.1668 10.0773V11.9006H21.0026C20.2158 11.9006 19.6204 11.6577 19.2168 11.1713C18.8129 10.6848 18.6111 10.1047 18.6111 9.43094V0.099447H20.6565V9.29834C20.6565 9.81792 20.898 10.0773 21.38 10.0773H22.1668Z" fill="#666C7B"/>
<path d="M26.19 3.51381V11.9006H24.1447V3.51381H26.19Z" fill="#666C7B"/>
<path fill-rule="evenodd" clip-rule="evenodd" d="M33.0021 11.0884C32.4881 11.6962 31.8114 12 30.9726 12C30.1125 12 29.4464 11.7402 28.9747 11.221C28.618 10.8344 28.3874 10.3537 28.2825 9.779C28.1773 9.2043 28.1249 8.46961 28.1249 7.57458C28.1249 6.69073 28.1773 5.96145 28.2825 5.38674C28.3874 4.81203 28.618 4.33137 28.9747 3.94475C29.4464 3.42517 30.1073 3.16575 30.9568 3.16575C31.7959 3.16575 32.462 3.45292 32.955 4.02762V0.099447H35V11.9006H33.0021V11.0884ZM30.8231 9.87845C31.0172 9.99988 31.2609 10.0608 31.5547 10.0608C31.8485 10.0608 32.0923 9.99988 32.2863 9.87845C32.4801 9.75666 32.6244 9.5747 32.719 9.33149C32.8142 9.08462 32.8778 8.82541 32.9075 8.56077C32.9392 8.29017 32.955 7.9612 32.955 7.57458C32.955 6.76783 32.8633 6.15458 32.6796 5.73481C32.4959 5.31504 32.121 5.10497 31.5547 5.10497C31.2609 5.10497 31.0172 5.16586 30.8231 5.28729C30.6294 5.40908 30.4873 5.59104 30.3982 5.83425C30.3094 6.07699 30.2484 6.33023 30.2174 6.5884C30.1861 6.84819 30.1703 7.17679 30.1703 7.57458C30.1703 7.97237 30.1861 8.30134 30.2174 8.56077C30.2491 8.82151 30.3098 9.07741 30.3982 9.3232C30.4877 9.57182 30.6294 9.75702 30.8231 9.87845Z" fill="#666C7B"/>
<path d="M26.2058 0.0332072V1.79011H24.1134V0.0332072H26.2058Z" fill="#666C7B"/>
</svg>
